<?xml version="1.0" encoding="UTF-8"?>
<svg width="42px" height="42px" viewBox="0 0 42 42" version="1.1" xmlns="http://www.w3.org/2000/svg" xmlns:xlink="http://www.w3.org/1999/xlink">
    <!-- Generator: Sketch 52.4 (67378) - http://www.bohemiancoding.com/sketch -->
    <title>Group 14</title>
    <desc>Created with Sketch.</desc>
    <g id="Page-1" stroke="none" stroke-width="1" fill="none" fill-rule="evenodd">
        <g id="natede_desktop_1440_1" transform="translate(-731.000000, -5355.000000)" stroke-width="1.5">
            <g id="Group-14" transform="translate(732.000000, 5356.000000)">
                <g id="Group-11">
                    <path d="M19.9751467,39.5496533 C30.7863467,39.5496533 39.5495467,30.78592 39.5495467,19.9752533 C39.5495467,9.16405333 30.7863467,0.40032 19.9751467,0.40032 C9.16394667,0.40032 0.400213333,9.16405333 0.400213333,19.9752533 C0.400213333,30.78592 9.16394667,39.5496533 19.9751467,39.5496533 Z" id="Stroke-1" stroke="#303031"></path>
                    <path d="M12.1642133,10.0616533 L27.7855467,10.0616533" id="Stroke-3" stroke="#5DB888"></path>
                    <path d="M12.1642133,28.6866667 L27.7855467,28.6866667" id="Stroke-5" stroke="#5DB888"></path>
                    <path d="M13.6662933,6.45642667 C12.8390933,6.45642667 12.1644267,7.13162667 12.1644267,7.95829333 L12.1644267,31.99136 C12.1644267,32.81856 12.8390933,33.4932267 13.6662933,33.4932267 L26.28336,33.4932267 C27.11056,33.4932267 27.78576,32.81856 27.78576,31.99136 L27.78576,7.95829333 C27.78576,7.13162667 27.11056,6.45642667 26.28336,6.45642667 L13.6662933,6.45642667 Z" id="Stroke-7" stroke="#303031"></path>
                    <path d="M18.9282667,31.0902933 L21.0216,31.0902933" id="Stroke-9" stroke="#303031"></path>
                </g>
            </g>
        </g>
    </g>
</svg>