<?xml version="1.0" encoding="UTF-8"?>
<svg width="42px" height="42px" viewBox="0 0 42 42" version="1.1" xmlns="http://www.w3.org/2000/svg" xmlns:xlink="http://www.w3.org/1999/xlink">
    <!-- Generator: Sketch 52.4 (67378) - http://www.bohemiancoding.com/sketch -->
    <title>Group 19</title>
    <desc>Created with Sketch.</desc>
    <g id="Page-1" stroke="none" stroke-width="1" fill="none" fill-rule="evenodd">
        <g id="natede_desktop_1440_1" transform="translate(-151.000000, -2892.000000)" stroke-width="1.5">
            <g id="Group-19" transform="translate(152.000000, 2893.000000)">
                <path d="M19.97472,39.5492267 C30.7853867,39.5492267 39.54912,30.78496 39.54912,19.9748267 C39.54912,9.16362667 30.7853867,0.399893333 19.97472,0.399893333 C9.16352,0.399893333 0.399786667,9.16362667 0.399786667,19.9748267 C0.399786667,30.78496 9.16352,39.5492267 19.97472,39.5492267 Z" id="Stroke-1" stroke="#303030"></path>
                <path d="M19.97472,32.72992 L20.0216533,17.7288533" id="Stroke-3" stroke="#5DB888"></path>
                <path d="M17.0536,25.33408 C14.0482667,25.33408 11.4573333,23.41728 10.9394667,20.7746133 L10.7837333,19.8418133 C10.732,19.5831467 10.7837333,19.3234133 10.9394667,19.0647467 C11.0946667,18.85728 11.3538667,18.7015467 11.6130667,18.6503467 L12.7010667,18.4946133 C13.012,18.4946133 13.3229333,18.44288 13.6856,18.44288 C16.6909333,18.44288 19.2813333,20.3602133 19.7997333,23.00288 L19.9549333,23.9351467 C20.0072,24.1943467 19.9549333,24.50528 19.7997333,24.7127467 C19.644,24.9202133 19.3853333,25.0754133 19.1261333,25.1271467 L17.9864,25.2823467 C17.6754667,25.33408 17.3645333,25.33408 17.0536,25.33408 Z" id="Stroke-5" stroke="#303030"></path>
                <path d="M22.8957867,25.33408 C22.5848533,25.33408 22.2221867,25.33408 21.9112533,25.2823467 L20.8232533,25.1271467 C20.5640533,25.0754133 20.3048533,24.9202133 20.1496533,24.7127467 C19.99392,24.50528 19.9421867,24.1943467 19.99392,23.9351467 L20.1496533,23.00288 C20.66752,20.3602133 23.20672,18.44288 26.2637867,18.44288 C26.57472,18.44288 26.9373867,18.44288 27.24832,18.4946133 L28.33632,18.6503467 C28.59552,18.7015467 28.8541867,18.85728 29.00992,19.0647467 C29.16512,19.2722133 29.2173867,19.5831467 29.16512,19.8418133 L29.00992,20.7746133 C28.49152,23.41728 25.9528533,25.33408 22.8957867,25.33408 Z" id="Stroke-7" stroke="#303030"></path>
                <path d="M22.0044267,15.72944 C21.8396267,15.99344 21.6476267,16.30064 21.43856,16.53744 L20.7302933,17.37744 C20.54896,17.56944 20.28016,17.70704 20.0220267,17.7289067 C19.76336,17.7507733 19.4726933,17.6297067 19.28016,17.44944 L18.57136,16.8227733 C16.60496,14.9833067 16.32496,11.8137067 17.9446933,9.22170667 C18.1094933,8.95770667 18.3020267,8.65050667 18.51056,8.41370667 L19.2188267,7.57370667 C19.40016,7.38170667 19.6694933,7.24410667 19.9270933,7.22224 C20.18576,7.20037333 20.47696,7.32037333 20.66896,7.50170667 L21.37776,8.12837333 C23.34416,9.96784 23.6246933,13.13744 22.0044267,15.72944 Z" id="Stroke-9" stroke="#303030"></path>
            </g>
        </g>
    </g>
</svg>