<?xml version="1.0" encoding="UTF-8"?>
<svg width="42px" height="42px" viewBox="0 0 42 42" version="1.1" xmlns="http://www.w3.org/2000/svg" xmlns:xlink="http://www.w3.org/1999/xlink">
    <!-- Generator: Sketch 52.4 (67378) - http://www.bohemiancoding.com/sketch -->
    <title>Group 28</title>
    <desc>Created with Sketch.</desc>
    <g id="Page-1" stroke="none" stroke-width="1" fill="none" fill-rule="evenodd">
        <g id="natede_desktop_1440_1" transform="translate(-151.000000, -7116.000000)" stroke-width="1.5">
            <g id="Group-28" transform="translate(152.000000, 7117.000000)">
                <path d="M19.9752,39.5496533 C30.7864,39.5496533 39.5496,30.78592 39.5496,19.9752533 C39.5496,9.16405333 30.7864,0.40032 19.9752,0.40032 C9.164,0.40032 0.400266667,9.16405333 0.400266667,19.9752533 C0.400266667,30.78592 9.164,39.5496533 19.9752,39.5496533 Z" id="Stroke-1" stroke="#303031"></path>
                <path d="M19.9210133,7.55749333 C19.8522133,7.57136 19.7914133,7.61029333 19.74928,7.66576 C16.3695467,12.01296 11.3087467,18.4332267 11.3087467,24.02096 C11.3087467,28.7516267 15.2015467,32.39696 19.9754133,32.39696 C24.7482133,32.39696 28.6415467,28.7516267 28.6415467,24.02096 C28.6415467,18.4332267 23.5802133,12.01296 20.20048,7.66576 C20.13488,7.58042667 20.0266133,7.53882667 19.9210133,7.55749333 Z" id="Stroke-3" stroke="#5DB888"></path>
                <path d="M15.4106133,23.0965333 C15.4106133,26.1237333 17.8714133,28.584 20.8991467,28.584" id="Stroke-5" stroke="#303031"></path>
            </g>
        </g>
    </g>
</svg>