<svg xmlns="http://www.w3.org/2000/svg" width="17" height="16" viewBox="0 0 17 16"><defs><style>.a{fill:#aaa;}.b{fill:#757575;}</style></defs><g transform="translate(-1325.998 -58)"><path class="a" d="M1338.2,67.685l.092,0a5.424,5.424,0,0,1,4.706,5.68.627.627,0,0,1-.622.632H1326.62a.627.627,0,0,1-.622-.632,5.425,5.425,0,0,1,4.706-5.68.631.631,0,0,1,.126,1.256,4.1,4.1,0,0,0-3.557,3.793h14.45a4.062,4.062,0,0,0-3.555-3.793.631.631,0,0,1,.123-1.256ZM1334.5,58c2.286,0,3.939,2.267,3.939,5.053s-1.653,5.052-3.939,5.052-3.94-2.266-3.94-5.052S1332.214,58,1334.5,58Zm0,1.263c-1.6,0-2.695,1.7-2.695,3.79s1.092,3.79,2.695,3.79,2.695-1.7,2.695-3.79S1336.1,59.263,1334.5,59.263Z"/><path class="b" d="M1338.2,67.685l.092,0a5.424,5.424,0,0,1,4.706,5.68.627.627,0,0,1-.622.632H1326.62a.627.627,0,0,1-.622-.632,5.425,5.425,0,0,1,4.706-5.68.631.631,0,0,1,.126,1.256,4.1,4.1,0,0,0-3.557,3.793h14.45a4.062,4.062,0,0,0-3.555-3.793.631.631,0,0,1,.123-1.256ZM1334.5,58c2.286,0,3.939,2.267,3.939,5.053s-1.653,5.052-3.939,5.052-3.94-2.266-3.94-5.052S1332.214,58,1334.5,58Zm0,1.263c-1.6,0-2.695,1.7-2.695,3.79s1.092,3.79,2.695,3.79,2.695-1.7,2.695-3.79S1336.1,59.263,1334.5,59.263Z"/></g></svg>