<svg xmlns="http://www.w3.org/2000/svg" width="18" height="16" viewBox="0 0 18 16"><defs><style>.a{fill:#aaa;}.b{fill:#757575;}</style></defs><g transform="translate(-1365 -58)"><path class="a" d="M1378.6,58c2.714,0,4.4,1.8,4.4,4.688,0,5.96-8.006,10.925-8.347,11.133a1.221,1.221,0,0,1-1.269,0c-.342-.207-8.384-5.141-8.384-11.136A4.513,4.513,0,0,1,1369.745,58c1.914,0,3.473,1.43,4.445,2.365.961-.943,2.495-2.365,4.41-2.365Zm0,1.172c-2.148,0-4.016,2.735-4.4,2.735s-2.308-2.735-4.455-2.735a3.331,3.331,0,0,0-3.545,3.516c0,5.412,7.816,10.14,7.816,10.14s7.784-4.76,7.784-10.14c0-2.1-1.052-3.516-3.2-3.516Z"/><path class="b" d="M1378.6,58c2.714,0,4.4,1.8,4.4,4.688,0,5.96-8.006,10.925-8.347,11.133a1.221,1.221,0,0,1-1.269,0c-.342-.207-8.384-5.141-8.384-11.136A4.513,4.513,0,0,1,1369.745,58c1.914,0,3.473,1.43,4.445,2.365.961-.943,2.495-2.365,4.41-2.365Zm0,1.172c-2.148,0-4.016,2.735-4.4,2.735s-2.308-2.735-4.455-2.735a3.331,3.331,0,0,0-3.545,3.516c0,5.412,7.816,10.14,7.816,10.14s7.784-4.76,7.784-10.14c0-2.1-1.052-3.516-3.2-3.516Z"/></g></svg>